<svg transform="scale(1)" version="1.1" id="Layer_1" xmlns="http://www.w3.org/2000/svg" xmlns:xlink="http://www.w3.org/1999/xlink" x="0px" y="0px" viewBox="0 0 500 500" xml:space="preserve" class="show_show__wrapper__graphic__5Waiy "><title>React</title><style type="text/css">
	.st0{fill:#231F20;}
	.st1{fill:#FFFFFF;}
	.st2{fill:#D1D3D4;}
	.st3{fill:#34d399;}
	.st4{fill:none;}
</style><g id="line"><path class="st0" d="M456.9,399.8h-37.2c-0.5,0.1-0.9-0.3-1-0.8c-0.1-0.5,0.3-0.9,0.8-1c0.1,0,0.1,0,0.2,0h37.2
		c0.5-0.1,0.9,0.3,1,0.8c0.1,0.5-0.3,0.9-0.8,1C457,399.8,456.9,399.8,456.9,399.8z"></path></g><g id="plant"><polygon class="st0" points="418.9,221.3 437.2,399 372.2,399 390.5,221.3 372.2,204.3 437.2,204.3 	"></polygon><path class="st0" d="M437.2,399.7h-64.9c-0.2,0-0.4-0.1-0.5-0.2c-0.1-0.2-0.2-0.4-0.2-0.6l18.2-177.2l-18-16.8
		c-0.3-0.3-0.3-0.8,0-1.1c0.1-0.2,0.3-0.2,0.6-0.2h64.9c0.4,0,0.8,0.3,0.8,0.7c0,0.2-0.1,0.4-0.2,0.6l-18,16.8l18.2,177.2
		c0,0.2,0,0.4-0.2,0.6C437.5,399.6,437.4,399.7,437.2,399.7z M373.1,398.2h63.3l-18.1-176.8c0-0.2,0.1-0.5,0.2-0.6l16.9-15.8h-61.1
		l16.9,15.8c0.2,0.2,0.3,0.4,0.2,0.6L373.1,398.2z"></path><path class="st0" d="M407.5,352.2c-0.5,0-0.9-0.4-0.9-0.9V157.8c0-28,4.5-55.9,13.4-82.5c0.2-0.5,0.6-0.7,1.1-0.6s0.7,0.6,0.6,1.1
		l0,0c-8.8,26.4-13.3,54.1-13.3,82v193.5C408.3,351.8,408,352.2,407.5,352.2z"></path><path class="st0" d="M414,184.7h-0.4c-0.3,0-0.5-0.2-0.7-0.4c-6.6-10.7,6.5-34.4,18-45.4c5.4-5.1,11.2-8,16.8-8.2
		c4.5-0.3,8.9,1.4,12.1,4.7c2.9,2.7,3.7,7,2.2,10.6c-1.4,3.9-5,8.6-10.9,14.2C440.3,170.5,421.1,184.7,414,184.7z M448.5,132.3h-0.7
		c-5.1,0.2-10.5,2.9-15.6,7.8c-11.1,10.6-23.4,33-18,42.8c6.1-0.2,24.2-13.1,35.8-24.1l0,0c5.7-5.4,9.1-9.9,10.4-13.5
		c1.3-3,0.6-6.6-1.8-8.8C456,133.7,452.3,132.2,448.5,132.3L448.5,132.3z"></path><path class="st0" d="M407.5,208.7c-0.5,0-0.9-0.4-0.9-0.9c0-32.2,32.1-61.1,32.5-61.4c0.4-0.3,0.9-0.3,1.2,0.1
		c0.3,0.4,0.3,0.9-0.1,1.2l0,0c-0.3,0.3-31.9,28.7-31.9,60.1C408.4,208.3,408,208.7,407.5,208.7z"></path><path class="st0" d="M401.4,171c-9.5,0-37.7-18.3-53.4-33.2l0,0c-17-16.2-20.8-26.8-12.6-35.4c4.5-4.6,10.8-7,17.2-6.7
		c8,0.3,16.3,4.4,24.1,11.8c17.3,16.5,31.8,54.9,26.2,63c-0.1,0.2-0.3,0.3-0.6,0.4C402.1,171,401.7,171,401.4,171z M351.6,97.5
		c-5.6-0.1-11,2.1-14.9,6.1c-7.3,7.7-3.6,17.6,12.5,32.9l0,0c16.5,15.7,43.8,32.8,52,32.8h0.5c4-7.4-9.3-44.3-26.2-60.4
		c-7.5-7.1-15.4-11-22.9-11.4C352.3,97.5,352,97.5,351.6,97.5z"></path><path class="st0" d="M407.5,193c-0.5,0-0.9-0.4-0.9-0.9c0-31.4-31.6-59.9-31.9-60.1c-0.4-0.3-0.4-0.9-0.1-1.2
		c0.3-0.4,0.9-0.4,1.2-0.1l0,0c0.3,0.3,32.5,29.2,32.5,61.4C408.4,192.6,408,193,407.5,193z"></path><path class="st0" d="M402.1,201.4c-4.6,0-13.5-3.9-19.6-9.7c-4.9-4.6-9.9-10.6-5.2-15.4c3.6-3.8,10.7-4.7,17.9,2.1
		c6.3,6,12.1,15,9.2,22.3c-0.1,0.2-0.3,0.4-0.5,0.5C403.2,201.4,402.6,201.5,402.1,201.4z M384.3,175.1c-2.2,0-4.3,0.8-5.8,2.4
		c-2,2.1-2.9,5.2,5.2,12.9l0,0c6.8,6.4,16.1,9.7,19.1,9.2c1.8-5.3-1.6-13-8.9-19.9C390.4,176.4,387.1,175.1,384.3,175.1z"></path><path class="st0" d="M407.5,214.8c-0.5,0-0.9-0.4-0.9-0.9c0-12.8-13-24.5-13.1-24.6c-0.4-0.3-0.4-0.9-0.1-1.2c0,0,0,0,0,0
		c0.3-0.4,0.9-0.4,1.2-0.1c0.5,0.5,13.7,12.3,13.7,25.9C408.4,214.4,408,214.8,407.5,214.8z"></path><path class="st0" d="M408.1,148.4h-0.2c-1.9-0.1-3.7-1.4-5.2-3.7c-7.4-11.5-8.1-48-1.3-66.2c3.8-10.1,9.5-17.4,16.5-21.2
		c5.6-3.2,12.4-3.7,18.5-1.6c11.2,4.2,12.4,15.4,4.1,37.4l0,0C433.3,112.5,416.4,148.4,408.1,148.4z M429.1,56.1
		c-3.6,0-7.1,0.9-10.3,2.7c-6.6,3.6-12.1,10.6-15.7,20.3c-6.7,17.9-6.1,53.5,1.1,64.7c1.2,1.9,2.5,2.8,3.8,2.9h0.1
		c4.9,0,19.3-23.5,30.8-54.2c7.8-20.9,6.9-31.4-3.1-35.2C433.7,56.5,431.4,56.1,429.1,56.1z M439.8,92.8L439.8,92.8z"></path><path class="st1" d="M425.3,358.5c-0.5,0-0.8-0.3-0.9-0.8l-11.2-129.5c0-0.5,0.3-0.9,0.8-0.9c0,0,0,0,0,0c0.5,0,0.9,0.3,0.9,0.8
		c0,0,0,0,0,0l11.2,129.5C426.2,358.1,425.9,358.5,425.3,358.5L425.3,358.5z"></path></g><g id="chair"><path class="st2" d="M269.4,412.4h102.8c4.7,0,8.7-3.5,9.4-8.1l19.2-133.1c0.7-5.2-2.9-10-8.1-10.8c-0.4-0.1-0.9-0.1-1.3-0.1H288.6
		c-4.7,0-8.7,3.5-9.4,8.1L260,401.5c-0.8,5.2,2.8,10,8,10.8C268.5,412.4,269,412.4,269.4,412.4z"></path><path class="st2" d="M303.1,339.5H124c-4.7,0-8.7-3.5-9.4-8.1L95.4,198.2c-0.8-5.2,2.8-10,8-10.8c0.4-0.1,0.9-0.1,1.4-0.1h179.1
		c4.7,0,8.7,3.5,9.4,8.1l19.2,133.1c0.7,5.2-2.9,10-8.1,10.8C304,339.4,303.6,339.5,303.1,339.5z"></path><path class="st0" d="M303.1,340.3H124c-5.1,0-9.5-3.8-10.3-8.9L94.5,198.4c-0.8-5.7,3.1-10.9,8.8-11.7c0.5-0.1,1-0.1,1.5-0.1h179.1
		c5.1,0,9.5,3.8,10.3,8.9l19.2,133.1c0.8,5.7-3.1,10.9-8.8,11.7C304.1,340.3,303.6,340.3,303.1,340.3L303.1,340.3z M104.8,188.2
		c-4.8,0-8.6,3.9-8.6,8.6c0,0.4,0,0.8,0.1,1.2l19.2,133.1c0.6,4.2,4.3,7.4,8.5,7.4h179.1c4.8,0,8.6-3.9,8.6-8.6c0-0.4,0-0.8-0.1-1.2
		l-19.2-133.1c-0.6-4.2-4.3-7.4-8.5-7.4H104.8z"></path><rect class="st2" x="185.1" y="323.2" width="152.4" height="89.2"></rect><path class="st0" d="M152.9,293.3c-0.4,0-0.8-0.3-0.9-0.8l-14-96.9c-0.6-4.2-4.3-7.4-8.5-7.4c-0.5-0.1-0.8-0.5-0.8-1
		c0-0.4,0.4-0.7,0.8-0.8c5.1,0,9.5,3.8,10.3,8.9l14,96.9c0.1,0.5-0.2,0.9-0.7,1c0,0,0,0,0,0H152.9z"></path><path class="st0" d="M329.9,324h-0.1c-0.5-0.1-0.8-0.5-0.7-1c0,0,0,0,0,0l7.5-52c0.7-4.7-2.6-9.1-7.3-9.8c-0.4-0.1-0.8-0.1-1.2-0.1
		c-0.5-0.1-0.8-0.5-0.8-1c0-0.4,0.4-0.7,0.8-0.8c5.7,0,10.4,4.7,10.4,10.4c0,0.5,0,1-0.1,1.5l-7.5,52
		C330.7,323.7,330.3,324,329.9,324z"></path><path class="st0" d="M311.1,319.7c-0.4,0-0.8-0.3-0.9-0.8l-14.8-102.7c-0.1-0.5,0.3-0.9,0.7-1c0.5-0.1,0.9,0.3,1,0.7l0,0L312,318.7
		c0.1,0.5-0.3,0.9-0.7,1H311.1z"></path><path class="st0" d="M337.5,413.3c-0.5,0-0.9-0.4-0.9-0.9v-86.2c0-1.2-0.9-2.1-2.1-2.1H210.9c-0.5-0.1-0.8-0.5-0.8-1
		c0-0.4,0.4-0.7,0.8-0.8h123.6c2.1,0,3.9,1.7,3.9,3.9v86.2C338.4,412.9,338,413.3,337.5,413.3z"></path><path class="st0" d="M372.2,413.3H212.8c-0.5-0.1-0.8-0.5-0.8-1c0-0.4,0.4-0.7,0.8-0.8h159.4c0.5-0.1,0.9,0.3,1,0.8
		c0.1,0.5-0.3,0.9-0.8,1C372.4,413.3,372.3,413.3,372.2,413.3z"></path></g><g id="character"><polygon class="st1" points="291.4,215 297.7,229 277.7,246.2 270.7,224.6 	"></polygon><path class="st0" d="M277.7,247.1c-0.1,0-0.2,0-0.2,0c-0.3-0.1-0.5-0.3-0.6-0.6l-7-21.6c-0.1-0.4,0.1-0.9,0.5-1.1l20.7-9.6
		c0.2-0.1,0.5-0.1,0.7,0c0.2,0.1,0.4,0.2,0.5,0.4l6.4,14c0.2,0.3,0.1,0.8-0.2,1l-20,17.2C278.1,247,277.9,247.1,277.7,247.1z
		 M271.8,225.1l6.4,19.6l18.5-15.9l-5.7-12.6L271.8,225.1z"></path><path class="st1" d="M337.4,374.3l3.3,13.4c0,0,17.6,3.8,28.1,7.1s-29.1,18.6-50.5,20.5c-3.4-14.3-7.1-35.3-7.1-35.3L337.4,374.3z"></path><path class="st0" d="M318.4,416.1c-0.4,0-0.8-0.3-0.9-0.7c-3.3-14.2-7.1-35.1-7.2-35.3c-0.1-0.5,0.2-0.9,0.7-1l26.2-5.7
		c0.4-0.1,0.9,0.2,1,0.6l3.2,12.8c3,0.7,18.3,4.1,27.7,7c2.1,0.7,2.4,1.8,2.3,2.6c-0.1,1.3-2.4,5.1-19.8,11.4
		C339.9,412.2,327.1,415.4,318.4,416.1L318.4,416.1z M312.2,380.6c0.7,4,3.9,21.2,6.8,33.7c20.4-2,50.3-14,50.7-18
		c0-0.3-0.6-0.6-1.1-0.8c-10.3-3.3-27.9-7.1-28-7.1c-0.3-0.1-0.6-0.3-0.7-0.6l-3.1-12.5L312.2,380.6z"></path><path class="st0" d="M350.3,387.9c-6.5,3.4-10.6,10.2-10.4,17.5l-26.7,6.1l0.9,4.1c0,0,23.9-3.8,40-7.5c17.3-3.9,21.2-7.4,22-9.3
		S365.2,386,350.3,387.9z"></path><path class="st0" d="M314.1,416.3c-0.4,0-0.7-0.2-0.7-0.6l-0.9-4.1c-0.1-0.4,0.2-0.8,0.6-0.9l26.1-6c0.1-7.4,4.3-14.1,10.8-17.6
		c0.1,0,0.1-0.1,0.2-0.1c12.8-1.6,23.1,5.8,25.8,9.4c0.8,1,1,1.9,0.8,2.5c-1.5,3.4-9,6.7-22.6,9.8c-15.9,3.7-39.8,7.5-40,7.5
		L314.1,416.3z M314.1,412l0.6,2.7c4.1-0.6,24.9-4.1,39.2-7.4c17.1-3.9,20.8-7.2,21.5-8.9c0-0.2-0.5-1.2-2.2-2.7
		c-6.3-5.4-14.5-7.9-22.7-7.1c-6.2,3.2-10.1,9.8-9.9,16.8c0,0.4-0.2,0.7-0.6,0.7L314.1,412z"></path><path class="st0" d="M340.8,379.5c-3.8,3.8-29.6,9.1-29.6,9.1s-5.7-43.4-17.6-65.8c-1.3-2.4-43-44.2-49.1-44.3
		c24-0.3,35.4-11.1,63.4-3.3C326.8,280.4,341.7,356.6,340.8,379.5z"></path><path class="st0" d="M311.2,389.3c-0.4,0-0.7-0.3-0.7-0.6c-0.1-0.4-5.8-43.5-17.6-65.5c-0.6-1-10.5-11.4-22.6-22.9
		c-20.5-19.5-25-21.1-25.8-21.1c-0.4,0-0.7-0.3-0.7-0.7c0,0,0,0,0,0c0-0.4,0.3-0.7,0.7-0.8c8.9-0.1,16-1.7,23-3.2
		c11.8-2.6,22.9-5,40.6-0.1c19.7,5.5,34.4,83.3,33.5,105.2c0,0.2-0.1,0.4-0.2,0.5c-3.9,3.9-28.9,9-29.9,9.3L311.2,389.3z
		 M247.7,279.1c11.8,7.3,45.1,40.7,46.5,43.4c11,20.6,16.8,59.2,17.6,65.2c7.5-1.5,24.7-5.6,28.2-8.5c0.9-24.4-14.6-98.4-32.4-103.3
		c-17.4-4.8-28.3-2.4-39.9,0.1C261.2,277.5,254.5,278.6,247.7,279.1z M340.8,379.5L340.8,379.5z"></path><path class="st1" d="M296.9,380.9l1.8,15.6c0,0,28,5.7,29.7,8.9c5.3,9.6-31,15.1-52.4,17c-1-15.7-5.2-35.8-5.2-35.8L296.9,380.9z"></path><path class="st0" d="M275.9,423.3c-0.2,0-0.4-0.1-0.6-0.2c-0.2-0.2-0.3-0.4-0.3-0.6c-0.9-15.5-5.2-35.4-5.2-35.6
		c-0.1-0.5,0.2-0.9,0.7-1l26.2-5.7c0.2-0.1,0.5,0,0.7,0.1c0.2,0.1,0.3,0.4,0.4,0.6l1.7,14.9c7.3,1.5,27.9,6,29.7,9.2
		c0.8,1.3,0.8,3,0.1,4.4C324.5,418.3,287.3,422.3,275.9,423.3L275.9,423.3z M271.7,387.3c0.8,3.9,4.1,20.5,5,34.1
		c21.6-2,47.5-6.5,50.9-12.9c0.5-0.8,0.5-1.9-0.1-2.7c-1-1.8-15.6-5.7-29.1-8.5c-0.4-0.1-0.7-0.4-0.7-0.8l-1.6-14.6L271.7,387.3z"></path><path class="st3" d="M188.2,272.2c0,0,8.1-15.2,6.2-42.9c-1-14.9-11.8-23.4-10.9-34.2c2.6-31.1,23-33,30-33.4s44.5-5.4,58.2,11.3
		c6.6,8.1-1.7,33.2-2.4,58.7c-0.8,26.8,3.8,44.8,3.8,44.8l-76.3,1.9L188.2,272.2z"></path><path class="st1" d="M287.5,238.2l-18,2.5c-0.8-0.2-1.7,0.2-1.9,1c0,0.2-0.1,0.3-0.1,0.5l0,21.4L287.5,238.2z"></path><path class="st0" d="M267.5,264.5c-0.1,0-0.2,0-0.3,0c-0.4-0.1-0.6-0.5-0.6-0.8l0-21.4c0-1.3,1.1-2.4,2.4-2.5c0.2,0,0.3,0,0.5,0
		l17.8-2.5c0.5-0.1,0.9,0.3,1,0.8c0,0.2,0,0.5-0.2,0.7l-20,25.4C268.1,264.4,267.8,264.5,267.5,264.5z M269.1,241.5
		c-0.1,0-0.3,0-0.4,0.1c-0.2,0.1-0.3,0.3-0.3,0.5v18.9l17.1-21.7l-15.8,2.2c-0.1,0-0.2,0-0.4,0L269.1,241.5z"></path><line class="st4" x1="271.6" y1="245.9" x2="272.3" y2="259.2"></line><path class="st0" d="M272.3,260.1c-0.5,0-0.8-0.4-0.9-0.8l-0.6-13.4c0-0.5,0.3-0.9,0.8-0.9c0,0,0,0,0,0c0.5,0,0.9,0.4,0.9,0.8
		l0.6,13.4C273.2,259.6,272.8,260,272.3,260.1L272.3,260.1z"></path><path class="st1" d="M271.6,323.2h-26.3c14.1-4.5,24.9-8.5,25.4-5.5C270.9,318.6,271.2,320.5,271.6,323.2z"></path><path class="st0" d="M271.6,324h-26.3c-0.4,0-0.8-0.3-0.9-0.8c-0.1-0.4,0.2-0.9,0.6-1l5.7-1.8c11.5-3.7,17.7-5.6,19.9-4.3
		c0.5,0.3,0.8,0.8,0.9,1.3c0.1,0.8,0.4,2.6,0.9,5.1l0.1,0.4c0.1,0.5-0.3,0.9-0.8,1C271.7,323.9,271.6,323.9,271.6,324L271.6,324z
		 M250.9,322.2h19.7c-0.4-2.1-0.6-3.7-0.7-4.5c0,0,0-0.1-0.1-0.1c-1.6-1-9.8,1.6-18.4,4.4L250.9,322.2z"></path><path class="st0" d="M301.7,390.9l-32.9,1.9c0,0-6.2-50.1-6.2-69.6c-4.8,0-14.1-0.4-17.3-0.1h-45.9c0,0-34.6-40.4-20.2-46.8
		l74.4-4.6c42-2.9,47.8,1.2,47.7,42C301.2,338.8,301.7,390.9,301.7,390.9z"></path><path class="st0" d="M268.8,393.6c-0.4,0-0.7-0.3-0.7-0.7c-0.1-0.5-6-49.1-6.2-69c-1.5,0-3.4,0-5.3-0.1c-4.3-0.1-9.2-0.2-11.2,0
		h-45.9c-0.2,0-0.4-0.1-0.6-0.3c-1.1-1.3-26.5-31.2-23.7-43.5c0.4-2,1.8-3.7,3.7-4.5c0.1,0,0.2-0.1,0.3-0.1l74.4-4.6
		c21.6-1.5,33.9-1.1,40.6,5.2s7.9,18,7.9,37.5c0,24.8,0.5,76.7,0.5,77.2c0,0.4-0.3,0.7-0.7,0.8L268.8,393.6L268.8,393.6z
		 M249.2,322.3c2.2,0,4.8,0.1,7.4,0.1c2.3,0.1,4.4,0.1,6,0.1c0.4,0,0.7,0.3,0.8,0.7c0,0,0,0,0,0c0,18,5.4,62.7,6.1,68.8l31.5-1.8
		c-0.1-6.4-0.5-53.4-0.5-76.5c0-19.1-1.1-30.5-7.4-36.4s-18.3-6.3-39.5-4.9l-74.2,4.6c-1.4,0.6-2.4,1.9-2.7,3.4
		c-2.5,11,20.6,38.9,23.1,41.9h45.5C246.2,322.3,247.6,322.3,249.2,322.3z"></path><path class="st0" d="M220.4,109.3c1.3-1.2,3-2,4.8-2c1.2,0.1,2.3,0.8,2.9,1.8c0.2,0.4,0.7,0.6,1.2,0.4c0.1,0,0.2-0.1,0.3-0.2
		c2.9-3.3,7.5-4.8,12-5.1c9.1-0.7,21.1,3.4,24.4,14.8c1.7,5.9-4.1,10.6-6.5,12.5c-2.8,2-5.8,3.7-9,5.2l-6.6,3.3
		c-6.7,3.4-15.9,6.2-23.2,2.6c-6.4-3.1-7.6-14.4-6.7-20.6C214.4,117.1,216.7,112.6,220.4,109.3L220.4,109.3z"></path><path class="st0" d="M228.1,145c-2.8,0-5.5-0.6-8-1.8c-6.5-3.2-8.1-14.4-7.1-21.3c0.6-5.1,3-9.8,6.9-13.2l0.1-0.1
		c1.4-1.3,3.2-2.1,5.2-2.1c1.4,0.1,2.8,0.9,3.5,2.2c0,0,0.1,0.1,0.1,0.1c2.8-3.1,7.3-5,12.6-5.4c14-1.1,22.9,7.2,25.2,15.3
		c1.3,4.4-1,8.9-6.8,13.3c-2.9,2-5.9,3.8-9.1,5.3l-3.3,1.7l-3.3,1.6C239.6,142.8,233.8,145,228.1,145z M220.8,110
		c-3.5,3.2-5.7,7.5-6.3,12.2c-0.9,6.3,0.5,16.9,6.3,19.8c7.2,3.5,16.2,0.5,22.5-2.6l3.3-1.6l3.3-1.7c3.1-1.4,6.1-3.1,8.9-5.1
		c5.2-4,7.4-7.9,6.3-11.7c-2.2-7.6-10.5-15.3-23.6-14.3c-2.8,0.2-8.1,1.1-11.5,4.9c-0.3,0.4-0.8,0.6-1.4,0.5c-0.5-0.1-1-0.4-1.3-0.8
		c-0.5-0.8-1.3-1.3-2.3-1.4c-1.6,0-3.1,0.7-4.2,1.8L220.8,110z"></path><path class="st1" d="M250.6,159.3v16.8c0,0-3.9,9.2-14.9,6.4s-12.4-10.7-12.4-10.7l0.5-31.1c0,0,8.2-4.3,6-22
		c9,4,18.9,5.4,28.6,4.3c0,0,4.8,19.3,3.3,27.8S250.6,159.3,250.6,159.3L250.6,159.3z"></path><path class="st0" d="M239.6,183.9c-1.4,0-2.8-0.2-4.2-0.6c-11.4-2.9-12.9-11-13-11.4c0-0.1,0-0.1,0-0.2l0.5-31.1
		c0-0.3,0.2-0.6,0.5-0.8c0.1,0,7.6-4.3,5.6-21.2c-0.1-0.5,0.3-0.9,0.7-1c0.2,0,0.4,0,0.5,0.1c8.8,3.9,18.5,5.4,28.1,4.2
		c0.5-0.1,0.9,0.2,1,0.7c0.2,0.8,4.8,19.6,3.4,28.2c-1.3,7.6-8.6,8.9-11.2,9.1v16c0,0.1,0,0.2-0.1,0.3
		C251.4,176.5,248.1,183.9,239.6,183.9z M224.2,171.8c0.2,0.8,1.8,7.4,11.7,9.9c9.4,2.4,13.3-4.7,13.9-5.8v-16.5c0,0,0-0.1,0-0.1
		c0-0.5,0.4-0.9,0.9-0.9l0,0c0.6,0,9-0.1,10.3-7.7c1.2-7.3-2.3-23.1-3.1-26.8c-9.1,0.9-18.4-0.4-26.9-3.8
		c1.4,14.8-4.5,19.9-6.2,21.1L224.2,171.8z"></path><path class="st1" d="M230.3,140.3c-1.1-5.4-10.2-9.1-12.8-3c-1.9,6.9,5.2,14.4,12.1,11.2"></path><path class="st0" d="M226.2,150.1c-2.3,0-4.4-0.9-6.1-2.3c-3.2-2.6-4.5-6.8-3.5-10.8c0,0,0-0.1,0-0.1c1-2.5,3.6-4.1,6.3-3.7
		c3.8,0.4,7.4,3.4,8.2,6.8c0.1,0.5-0.2,0.9-0.7,1s-0.9-0.2-1-0.7c-0.6-2.6-3.6-5.1-6.6-5.4c-1.9-0.3-3.8,0.8-4.5,2.6
		c-0.8,3.3,0.4,6.7,3,8.9c2.2,2,5.3,2.5,8,1.2c0.4-0.2,1,0,1.2,0.4c0.2,0.4,0,1-0.4,1.2l0,0C228.8,149.8,227.5,150.1,226.2,150.1z"></path><path class="st1" d="M247.9,133.3c0,0,6,8.5,4.6,10s-4.3,1.7-4.3,1.7"></path><path class="st0" d="M248.3,145.9c-0.5-0.1-0.8-0.5-0.8-1c0-0.4,0.4-0.7,0.8-0.8c0.7,0,2.8-0.4,3.7-1.4c0.3-0.8-1.9-5-4.7-8.9
		c-0.2-0.4-0.1-1,0.3-1.2c0.4-0.2,0.8-0.1,1.1,0.2c5.3,7.5,5.4,10.2,4.6,11.1c-1.5,1.8-4.6,2-4.9,2L248.3,145.9z"></path><path class="st0" d="M238.9,131.2c-0.8,0-1.5,0.8-1.5,1.9s0.5,2,1.3,2.1c1,0.1,1.8-0.7,1.8-1.6
		C240.5,132.5,239.7,131.3,238.9,131.2z"></path><ellipse class="st0" transform="matrix(0.972 -0.2351 0.2351 0.972 -24.1056 63.7907)" cx="255.4" cy="133" rx="1.4" ry="2"></ellipse><path class="st0" d="M250.6,159.3c0,0-10.4,2.4-16.6-1.1c0,0,6.8,14.1,16.6,12.6V159.3z"></path><path class="st0" d="M249.1,171.7c-9.4,0-15.6-12.6-15.8-13.2c-0.1-0.3-0.1-0.6,0.2-0.9c0.2-0.2,0.6-0.3,0.9-0.1
		c5.8,3.3,16,1.1,16.1,1c0.2-0.1,0.5,0,0.6,0.1c0.2,0.1,0.3,0.4,0.3,0.6v11.5c0,0.4-0.3,0.7-0.6,0.7
		C250.2,171.6,249.7,171.7,249.1,171.7z M235.7,159.8c2.2,3.6,7.4,10.8,14.1,10.4v-9.9C247.4,160.6,240.9,161.6,235.7,159.8z"></path><path class="st3" d="M271.7,173c0,0,10.1,14.3,22.9,41.4c0.5,1.1-26.2,16.3-26.2,16.3L271.7,173z"></path><path class="st1" d="M252.8,150.8c0,0-7.6,2-12.3-1.6"></path><path class="st0" d="M248,152.2c-2.8,0.1-5.6-0.7-8-2.3c-0.4-0.3-0.5-0.8-0.2-1.2c0,0,0,0,0,0c0.3-0.4,0.8-0.5,1.2-0.2
		c4.3,3.2,11.5,1.4,11.5,1.4c0.5-0.1,0.9,0.2,1.1,0.6s-0.2,0.9-0.6,1.1l0,0C251.4,152,249.7,152.2,248,152.2z"></path><path class="st0" d="M310.1,397.8c-6.7,3-11.2,9.5-11.4,16.8l-27,4.5l0.6,4.1c0,0,24.1-2.3,40.4-5.1c17.5-2.9,21.6-6,22.6-8
		S325,396.8,310.1,397.8z"></path><path class="st0" d="M272.3,424c-0.4,0-0.7-0.3-0.7-0.6l-0.6-4.1c-0.1-0.4,0.2-0.8,0.6-0.9L298,414c0.6-7.4,5.1-13.9,11.9-16.9
		c0.1,0,0.1,0,0.2,0c12.9-0.8,22.7,7.2,25.2,11c0.7,1.1,0.9,1.9,0.6,2.5c-1.6,3.3-9.4,6.1-23.1,8.4c-16.1,2.7-40.2,5.1-40.4,5.1
		L272.3,424z M272.5,419.7l0.4,2.7c4.1-0.4,25.1-2.5,39.6-5c17.3-2.8,21.2-5.9,22-7.5c-0.5-1.1-1.2-2.1-2.1-2.9
		c-5.9-5.8-14-8.8-22.2-8.5c-6.4,2.8-10.6,9.1-10.9,16.1c0,0.4-0.3,0.6-0.6,0.7L272.5,419.7z M298.7,414.7L298.7,414.7z"></path><path class="st0" d="M269.5,241.6L269.5,241.6c-0.5,0-0.9-0.4-0.9-0.9c0.1-16.9-0.9-61.7-6.6-66.3c-0.4-0.3-0.4-0.9-0.1-1.2
		c0.3-0.4,0.8-0.4,1.2-0.1c0,0,0,0,0,0c1.2,1,4.9,3.9,6.5,36.3c0.8,15.9,0.7,31.2,0.7,31.4C270.4,241.2,270,241.6,269.5,241.6
		C269.6,241.6,269.6,241.6,269.5,241.6z"></path><path class="st1" d="M301.4,354.1c-0.5,0-0.9-0.4-0.9-0.9c-0.1-17.4-0.2-30.7-0.2-39.5c0-27.3-3-36.2-13.5-39.9
		c-0.4-0.2-0.7-0.7-0.5-1.2c0.2-0.4,0.6-0.6,1-0.5c12.7,4.3,14.8,16.3,14.7,41.5c0,8.9,0,22.2,0.2,39.5
		C302.2,353.7,301.9,354.1,301.4,354.1L301.4,354.1z"></path><path class="st1" d="M162.5,246.4c0.3,2,1.7,3.8,3.6,4.6c31.6,14.1,53.5,10.7,56.4,10.5c2.1-0.2,16.6,0,19.2,1.4
		c3.8,2.1,6.6,3.1,7.6,2c0.4-1.1-4-4.4-6.2-5.7c3.5,1.8,4.5,3.2,8.1,5c0.6,0.4,1.4,0.6,2.1,0.6c0.8-0.1,1.5-0.8,1.3-1.5l-9.6-6.4
		c3.2,2.1,6.7,3.9,10.3,5.2c1.5,0.6,3.6,4.2,4.8,3.6c0.9,0.4,1.3-1.9-1.2-5.1c-3.2-2.5-6.9-4.5-10.8-5.8c3.2,1.2,8,3.1,11.3,5.5
		c2,1.4,2.4,2.5,3.2,2.4c0.3-0.7,0.8-3.2-1.9-5.4c-3-1.9-10.9-7.8-23.1-8.9c-10.4-0.9-38.7-8-45.4-11.2c0,0,5.1-18.4,7.6-24.8
		s-13.4-15.2-26.4-14.3c0,0-7.6,16.2-10.5,32.1C161.9,235.4,161.7,240.9,162.5,246.4z"></path><path class="st0" d="M259.8,266.5c-1,0-2-1-3-2.1c-0.4-0.5-0.9-0.9-1.4-1.4c0.1,0.5,0,1.1-0.4,1.5c-0.4,0.6-1,0.9-1.7,1
		c-0.9,0-1.8-0.2-2.6-0.7l-0.6-0.3c0,0.2,0,0.4-0.1,0.6c0,0.1-0.1,0.2-0.2,0.3c-1.3,1.4-3.9,0.9-8.7-1.9c-2.3-1.3-16.3-1.5-18.7-1.3
		l-0.6,0.1c-16.8,1.9-36.8-1.9-56.2-10.6c-2.1-0.9-3.7-2.9-4.1-5.2l0,0c-0.8-5.6-0.6-11.2,0.4-16.7c2.9-15.8,10.5-32.2,10.6-32.3
		c0.1-0.3,0.4-0.5,0.7-0.5c10.6-0.8,22.2,4.6,26.1,9.9c1.4,2,1.8,3.9,1.1,5.6c-2.2,5.5-6.4,20.5-7.4,24c7.8,3.3,34.6,9.9,44.4,10.8
		c8.1,0.8,15.9,3.7,22.6,8.5l0.9,0.6c3.4,2.7,2.5,5.8,2.2,6.4c-0.1,0.3-0.4,0.5-0.7,0.6c-0.5,0.1-1-0.1-1.4-0.4c0.5,1.4,0.4,2.5,0,3
		c-0.3,0.4-0.7,0.6-1.2,0.5C260,266.5,259.9,266.5,259.8,266.5z M245,255.9c0.2,0,0.3,0,0.5,0.1c3.2,2.1,6.6,3.8,10.1,5.1
		c1,0.5,1.8,1.2,2.5,2.1c0.5,0.6,1,1.1,1.7,1.5h0.1c-0.2-1.4-0.8-2.6-1.7-3.6c-2.2-1.7-4.5-3.1-7-4.3c-1.3-0.5-2.5-1-3.5-1.4
		c-0.4-0.2-0.7-0.7-0.5-1.1c0.2-0.4,0.6-0.7,1.1-0.5c1.2,0.4,2.4,0.9,3.6,1.4c2.8,1.1,5.5,2.5,8,4.2c0.7,0.5,1.3,1,1.9,1.6l0.2,0.2
		c0-1.4-0.7-2.6-1.8-3.4l-0.9-0.6c-6.4-4.6-14-7.4-21.8-8.2c-10.2-0.9-38.8-8-45.7-11.3c-0.4-0.2-0.6-0.6-0.5-1
		c0.2-0.8,5.1-18.6,7.7-24.9c0.5-1.2,0.1-2.5-0.9-4c-3.5-4.8-14.5-9.7-24.1-9.2c-1.3,2.8-7.7,17.3-10.2,31.4
		c-1.1,5.3-1.2,10.7-0.5,16.1l0,0c0.3,1.7,1.4,3.2,3,3.9c19.1,8.5,38.8,12.3,55.3,10.5l0.6-0.1c1.7-0.2,16.7-0.1,19.7,1.5
		c4,2.2,5.6,2.5,6.2,2.4c-1.6-1.8-3.6-3.3-5.7-4.5c-0.4-0.3-0.5-0.8-0.2-1.2c0.2-0.3,0.7-0.5,1.1-0.3c1.4,0.7,2.8,1.6,4.1,2.5
		c1.2,0.9,2.6,1.7,3.9,2.4c0.5,0.3,1.1,0.5,1.7,0.5c0.2,0,0.3-0.1,0.4-0.2l-9.1-6.1c-0.4-0.3-0.5-0.8-0.3-1.2
		C244.4,256.1,244.7,255.9,245,255.9L245,255.9z"></path><path class="st3" d="M207.1,162.3c0,0-27.3,3.5-38.8,40l32.4,17.8l10.2-20.6"></path><path class="st0" d="M200.8,221c-0.1,0-0.3,0-0.4-0.1l-32.4-17.8c-0.4-0.2-0.6-0.8-0.3-1.2s0.8-0.6,1.2-0.3l31.6,17.3l9.8-19.8
		c0.2-0.4,0.7-0.6,1.2-0.4c0.4,0.2,0.6,0.7,0.4,1.2l-10.2,20.7c-0.1,0.2-0.3,0.4-0.5,0.4C201,221,200.9,221,200.8,221z"></path></g><g id="arm-chair"><path class="st2" d="M212.8,412.4H110c-4.7,0-8.7-3.5-9.4-8.1L81.4,271.2c-0.7-5.2,2.9-10,8.1-10.8c0.4-0.1,0.9-0.1,1.3-0.1h102.8
		c4.7,0,8.7,3.5,9.4,8.1l19.2,133.1c0.8,5.2-2.8,10-8,10.8C213.7,412.4,213.3,412.4,212.8,412.4z"></path><path class="st0" d="M212.8,413.3H110c-5.1,0-9.5-3.8-10.3-8.9L80.5,271.3c-0.8-5.7,3.1-10.9,8.8-11.7c0.5-0.1,1-0.1,1.5-0.1h102.8
		c5.1,0,9.5,3.8,10.3,8.9l19.2,133.1c0.8,5.7-3.1,10.9-8.8,11.8C213.8,413.2,213.3,413.3,212.8,413.3z M90.8,261.2
		c-4.8,0-8.6,3.8-8.6,8.6c0,0.4,0,0.8,0.1,1.2l19.2,133.1c0.6,4.2,4.3,7.4,8.5,7.4h102.8c4.8,0,8.6-3.9,8.6-8.6c0-0.4,0-0.8-0.1-1.2
		l-19.2-133.1c-0.6-4.2-4.3-7.4-8.5-7.4L90.8,261.2z"></path><path class="st0" d="M164,405.1c-0.4,0-0.8-0.3-0.9-0.8L144,271.3c-0.8-5.7,3.1-10.9,8.8-11.7c0.5-0.1,1-0.1,1.5-0.1
		c0.5,0.1,0.8,0.5,0.8,1c0,0.4-0.4,0.7-0.8,0.8c-4.8,0-8.6,3.9-8.6,8.6c0,0.4,0,0.8,0.1,1.2L165,404.1c0.1,0.5-0.2,0.9-0.7,1
		c0,0,0,0,0,0H164z"></path></g><g id="books"><path class="st0" d="M201.6,426.8H42.1c-0.5,0.1-0.9-0.3-1-0.8c-0.1-0.5,0.3-0.9,0.8-1c0.1,0,0.1,0,0.2,0h159.4
		c0.5,0.1,0.8,0.5,0.8,1C202.3,426.5,202,426.8,201.6,426.8z"></path><path class="st3" d="M65.9,398.8h115l0,0v27.2l0,0h-115c-3.6,0-6.6-3-6.6-6.6l0,0v-14C59.3,401.7,62.2,398.8,65.9,398.8z"></path><path class="st0" d="M180.8,426.8h-115c-4.1,0-7.5-3.4-7.5-7.5v-14c0-4.1,3.4-7.5,7.5-7.5h115c0.5,0,0.9,0.4,0.9,0.9l0,0v27.2
		C181.7,426.4,181.4,426.8,180.8,426.8C180.9,426.8,180.9,426.8,180.8,426.8z M65.8,399.6c-3.2,0-5.7,2.6-5.7,5.7v14
		c0,3.2,2.6,5.7,5.7,5.7H180v-25.5H65.8z"></path><path class="st1" d="M135.2,398.8h45.6l0,0v27.2l0,0h-45.6c-3.6,0-6.6-3-6.6-6.6l0,0v-14C128.6,401.7,131.6,398.8,135.2,398.8z"></path><path class="st0" d="M180.8,426.8h-45.6c-4.1,0-7.5-3.4-7.5-7.5v-14c0-4.1,3.4-7.5,7.5-7.5h45.6c0.5,0,0.9,0.4,0.9,0.9l0,0v27.2
		C181.7,426.4,181.4,426.8,180.8,426.8C180.9,426.8,180.9,426.8,180.8,426.8z M135.2,399.6c-3.2,0-5.7,2.6-5.7,5.7v14
		c0,3.2,2.6,5.7,5.7,5.7H180v-25.5H135.2z"></path><path class="st1" d="M74.4,366.1h115l0,0V399l0,0h-115c-3.6,0-6.6-3-6.6-6.6l0,0v-19.7C67.8,369,70.8,366.1,74.4,366.1
		C74.4,366.1,74.4,366.1,74.4,366.1z"></path><path class="st0" d="M189.4,399.8h-115c-4.1,0-7.4-3.4-7.4-7.5v-19.7c0-4.1,3.3-7.5,7.5-7.5h115c0.5,0,0.9,0.4,0.9,0.9V399
		C190.3,399.5,189.9,399.9,189.4,399.8C189.4,399.8,189.4,399.8,189.4,399.8z M74.4,367c-3.2,0-5.7,2.6-5.7,5.7v19.7
		c0,3.2,2.6,5.7,5.7,5.7h114.1V367H74.4z"></path><path class="st1" d="M143.8,366.1h45.6l0,0V399l0,0h-45.6c-3.6,0-6.6-3-6.6-6.6l0,0v-19.7C137.2,369,140.1,366.1,143.8,366.1
		L143.8,366.1z"></path><path class="st0" d="M189.4,399.8h-45.6c-4.1,0-7.5-3.3-7.5-7.5v-19.7c0-4.1,3.3-7.5,7.5-7.5h45.6c0.5,0,0.9,0.4,0.9,0.9V399
		C190.3,399.5,189.9,399.8,189.4,399.8z M143.8,367c-3.2,0-5.7,2.6-5.7,5.7v19.7c0,3.2,2.6,5.7,5.7,5.7h44.8V367H143.8z"></path><path class="st3" d="M65.9,342.5h105.5l0,0v23.8l0,0H65.9c-3.6,0-6.6-3-6.6-6.6l0,0v-10.6C59.3,345.5,62.2,342.5,65.9,342.5z"></path><path class="st0" d="M171.4,367.1H65.9c-4.1,0-7.5-3.4-7.5-7.5v-10.6c0-4.1,3.4-7.5,7.5-7.5h105.5c0.5,0,0.9,0.4,0.9,0.9v23.8
		C172.3,366.8,171.9,367.1,171.4,367.1z M65.9,343.4c-3.2,0-5.7,2.6-5.7,5.7v10.6c0,3.2,2.6,5.7,5.7,5.7h104.7v-22L65.9,343.4z"></path><path class="st1" d="M135.2,342.5h36.2l0,0v23.8l0,0h-36.2c-3.6,0-6.6-3-6.6-6.6l0,0v-10.6C128.6,345.5,131.6,342.5,135.2,342.5z"></path><path class="st0" d="M171.4,367.1h-36.2c-4.1,0-7.5-3.4-7.5-7.5v-10.6c0-4.1,3.4-7.5,7.5-7.5h36.2c0.5,0,0.9,0.4,0.9,0.9v23.8
		C172.3,366.8,171.9,367.1,171.4,367.1z M135.2,343.4c-3.2,0-5.7,2.6-5.7,5.7v10.6c0,3.2,2.6,5.7,5.7,5.7h35.3v-22L135.2,343.4z"></path><path class="st0" d="M165.4,355.6h-26.9c-0.5,0.1-0.9-0.3-1-0.8c-0.1-0.5,0.3-0.9,0.8-1c0.1,0,0.1,0,0.2,0h26.9
		c0.5,0.1,0.8,0.5,0.8,1C166.1,355.2,165.8,355.6,165.4,355.6L165.4,355.6z"></path><path class="st0" d="M182.5,375.6h-33.7c-0.5,0.1-0.9-0.3-1-0.8c-0.1-0.5,0.3-0.9,0.8-1c0.1,0,0.1,0,0.2,0h33.7
		c0.5-0.1,0.9,0.3,1,0.8c0.1,0.5-0.3,0.9-0.8,1C182.6,375.6,182.5,375.6,182.5,375.6L182.5,375.6z"></path><path class="st0" d="M172.7,384.9h-26.9c-0.5-0.1-0.8-0.5-0.8-1c0-0.4,0.4-0.7,0.8-0.8h26.9c0.5,0.1,0.8,0.5,0.8,1
		C173.4,384.6,173.1,384.9,172.7,384.9z"></path><path class="st0" d="M180,409.4h-41c-0.5-0.1-0.8-0.5-0.8-1c0-0.4,0.4-0.7,0.8-0.8h41c0.5,0.1,0.8,0.5,0.8,1
		C180.7,409,180.4,409.3,180,409.4z"></path><path class="st0" d="M180,417.2h-32.2c-0.5,0.1-0.9-0.3-1-0.8c-0.1-0.5,0.3-0.9,0.8-1c0.1,0,0.1,0,0.2,0H180c0.5,0.1,0.8,0.5,0.8,1
		C180.7,416.8,180.4,417.1,180,417.2z"></path></g><g id="photo_frame"><rect class="st0" x="69.5" y="69.9" width="66.3" height="81.5"></rect><path class="st0" d="M135.7,152.2H69.5c-0.4,0-0.7-0.3-0.8-0.8V70c0-0.4,0.3-0.7,0.8-0.8h66.3c0.4,0,0.7,0.3,0.8,0.8v81.5
		C136.5,151.9,136.1,152.2,135.7,152.2z M70.2,150.7H135v-80H70.2L70.2,150.7z"></path><path class="st0" d="M118.7,71.3c-0.2,0-0.5-0.1-0.6-0.3l-12.9-12.9L92.4,71.1c-0.4,0.3-0.9,0.3-1.2-0.1c-0.3-0.3-0.3-0.8,0-1.1
		l13.5-13.5c0.3-0.3,0.9-0.3,1.2,0l13.5,13.5c0.3,0.3,0.3,0.9,0,1.2C119.2,71.2,118.9,71.3,118.7,71.3z"></path><rect class="st1" x="72.1" y="67.3" width="66.3" height="81.5"></rect><path class="st0" d="M138.4,149.7H72.1c-0.5,0-0.9-0.4-0.9-0.9c0,0,0,0,0,0V67.3c0-0.5,0.4-0.9,0.9-0.9c0,0,0,0,0,0h66.3
		c0.5,0,0.9,0.4,0.9,0.9v81.5C139.2,149.3,138.8,149.7,138.4,149.7z M73,148h64.5V68.2H73V148z"></path><rect class="st1" x="78.3" y="75" width="53.8" height="66.1"></rect><path class="st0" d="M132.1,142H78.3c-0.5,0-0.9-0.4-0.9-0.9V75c0-0.5,0.4-0.9,0.9-0.9c0,0,0,0,0,0h53.8c0.5,0,0.9,0.4,0.9,0.8
		c0,0,0,0,0,0v66.1C133,141.6,132.6,142,132.1,142C132.1,142,132.1,142,132.1,142z M79.2,140.2h52V75.9h-52V140.2z"></path><path class="st3" d="M96.3,128.7c8.8-2.4,18-2.9,27-1.4c3.2,0.6,6.1,1.8,8.8,3.7v10.2H80.5C84.1,135.2,89.7,130.8,96.3,128.7z"></path><path class="st0" d="M132.1,142H80.5c-0.5,0-0.9-0.4-0.9-0.9c0-0.1,0-0.3,0.1-0.4c3.7-6.2,9.5-10.7,16.3-12.9l0,0
		c8.9-2.5,18.3-3,27.4-1.4c3.3,0.6,6.4,1.9,9.1,3.8c0.2,0.2,0.4,0.4,0.4,0.7v10.2C133,141.6,132.6,142,132.1,142z M82.1,140.2h49.1
		v-8.9c-2.4-1.6-5.1-2.7-8-3.2c-8.9-1.5-18-1-26.7,1.4C90.7,131.4,85.6,135.2,82.1,140.2L82.1,140.2z"></path><path class="st0" d="M123.3,83.2c-1-0.9-2.3-1.5-3.7-1.5c-0.9,0.1-1.7,0.6-2.2,1.4c-0.2,0.3-0.6,0.5-0.9,0.3
		c-0.1,0-0.2-0.1-0.2-0.2c-2.2-2.5-5.8-3.7-9.2-4c-7-0.5-16.3,2.6-18.8,11.4c-1.3,4.6,3.1,8.2,5,9.6c2.2,1.5,4.5,2.9,6.9,4
		c1.7,0.8,3.4,1.7,5.1,2.5c5.2,2.6,12.2,4.8,17.9,2c4.9-2.4,5.8-11.2,5.2-15.9C127.9,89.1,126.1,85.6,123.3,83.2L123.3,83.2z"></path><path class="st0" d="M117.3,110.8c-4.4,0-8.9-1.7-12.3-3.4l-5.1-2.5c-2.5-1.1-4.8-2.5-7-4.1c-4.5-3.4-6.3-6.9-5.3-10.4
		c2.6-9.1,12-12.6,19.6-12c4.1,0.3,7.5,1.8,9.7,4.1c0.6-1,1.6-1.6,2.8-1.7c1.5,0,3,0.6,4.1,1.6l0.1,0.1c3,2.6,4.9,6.3,5.4,10.3
		c0.8,5.4-0.5,14.1-5.6,16.6C121.6,110.4,119.5,110.9,117.3,110.8z M105.3,79.8c-9,0-14.7,5.5-16.3,11c-0.8,2.8,0.8,5.8,4.8,8.8
		c2.1,1.5,4.4,2.8,6.8,3.9l5.1,2.5c4.8,2.4,11.8,4.7,17.2,2c4.4-2.2,5.4-10.3,4.8-15.1c-0.4-3.6-2.1-6.9-4.8-9.3l-0.1-0.1
		c-0.8-0.8-2-1.3-3.1-1.3c-0.7,0.1-1.3,0.4-1.6,1c-0.2,0.4-0.6,0.7-1.1,0.8c-0.5,0.1-0.9-0.1-1.2-0.5c-2.6-2.8-6.6-3.5-8.7-3.7
		C106.4,79.9,105.9,79.9,105.3,79.8L105.3,79.8z"></path><path class="st1" d="M100,121.7v13c0,0,3,7.1,11.5,5s9.5-8.3,9.5-8.3l-0.4-24c0,0-6.3-3.3-4.7-17c-6.9,3-14.5,4.2-22,3.3
		c0,0-3.7,14.9-2.6,21.5S100.1,121.7,100,121.7L100,121.7z"></path><path class="st0" d="M108.5,140.9c-4-0.1-7.6-2.3-9.3-5.9c0-0.1-0.1-0.2-0.1-0.3v-12.1c-3-0.3-7.8-2-8.6-7.2
		c-1.1-6.7,2.5-21.2,2.6-21.8c0.1-0.5,0.5-0.7,1-0.7c7.3,0.8,14.8-0.3,21.6-3.2c0.4-0.2,1,0,1.2,0.4c0.1,0.2,0.1,0.3,0.1,0.5
		c-1.6,13,4.1,16.1,4.2,16.1c0.3,0.1,0.5,0.4,0.5,0.8l0.4,24c0,0.1,0,0.1,0,0.2c0,0.3-1.2,6.7-10.2,9
		C110.7,140.8,109.6,140.9,108.5,140.9z M100.9,134.5c0.5,1,3.4,6.1,10.4,4.3c7.4-1.9,8.7-6.8,8.9-7.5l-0.4-23.4
		c-1.5-1-5.8-5.1-4.8-16.1c-6.5,2.6-13.4,3.5-20.4,2.9c-0.7,3.1-3.3,14.9-2.4,20.4c1,5.7,7.3,5.8,7.8,5.8l0,0c0.5,0,0.9,0.4,0.9,0.9
		c0,0,0,0,0,0c0,0,0,0.1,0,0.1L100.9,134.5z"></path><path class="st1" d="M115.7,107c0.9-4.1,7.9-7,9.9-2.3c1.5,5.3-4,11.1-9.4,8.6"></path><path class="st0" d="M118.8,114.8c-1,0-2.1-0.2-3-0.7c-0.4-0.2-0.6-0.7-0.4-1.2c0.2-0.4,0.7-0.6,1.2-0.4c2,0.9,4.4,0.6,6-0.9
		c1.9-1.6,2.8-4.2,2.2-6.6c-0.5-1.3-1.9-2.1-3.3-1.8c-2.3,0.3-4.2,1.8-4.9,4c-0.1,0.5-0.6,0.7-1.1,0.6c-0.4-0.1-0.7-0.5-0.6-1
		c0.8-3,3.4-5.1,6.5-5.4c2.2-0.3,4.3,0.9,5.1,2.9c0,0,0,0.1,0,0.1c0.8,3.1-0.3,6.4-2.8,8.5C122.3,114.1,120.6,114.8,118.8,114.8z"></path><path class="st1" d="M102.1,101.6c0,0-4.6,6.5-3.6,7.7s3.3,1.3,3.3,1.3"></path><path class="st0" d="M101.8,111.5L101.8,111.5c-1.5-0.1-2.8-0.6-3.9-1.6c-1-1.1,0.2-4.1,3.5-8.8c0.3-0.4,0.8-0.5,1.2-0.2
		c0.4,0.3,0.5,0.8,0.2,1.2c-2,2.8-3.6,5.9-3.6,6.7c0.8,0.6,1.7,0.9,2.7,0.9c0.5,0.1,0.8,0.5,0.8,1
		C102.6,111.2,102.3,111.5,101.8,111.5L101.8,111.5z M99.2,108.9L99.2,108.9z"></path><path class="st0" d="M109,100.1c0.6,0,1.1,0.6,1.2,1.5s-0.4,1.6-1,1.6c-0.7,0-1.4-0.5-1.4-1.2C107.8,101,108.4,100.1,109,100.1z"></path><ellipse class="st0" transform="matrix(0.2351 -0.972 0.972 0.2351 -24.9154 171.1495)" cx="96.3" cy="101.4" rx="1.6" ry="1.1"></ellipse><path class="st0" d="M100,121.7c0,0,8.1,1.9,12.8-0.8c0,0-5.3,10.9-12.8,9.7V121.7z"></path><path class="st0" d="M101.1,131.4c-0.4,0-0.8,0-1.2-0.1c-0.4-0.1-0.6-0.4-0.6-0.7v-8.9c0-0.2,0.1-0.4,0.3-0.6
		c0.2-0.1,0.4-0.2,0.6-0.1c0.1,0,7.8,1.8,12.3-0.8c0.3-0.2,0.6-0.1,0.9,0.1c0.2,0.2,0.3,0.6,0.2,0.9
		C113.3,121.6,108.5,131.4,101.1,131.4z M100.8,129.9c4.8,0.2,8.6-4.7,10.3-7.5c-3.8,1.2-8.4,0.6-10.3,0.2V129.9z"></path><path class="st1" d="M96.6,113.6c0,0,4.2,5,9.6-0.2"></path><path class="st0" d="M101.1,116.6h-0.3c-1.9-0.2-3.6-1.1-4.9-2.5c-0.3-0.4-0.3-0.9,0.1-1.2c0,0,0,0,0,0c0.4-0.3,0.9-0.2,1.2,0.1
		c1,1,2.3,1.7,3.7,1.8c1.8,0,3.4-0.8,4.6-2.2c0.3-0.3,0.9-0.3,1.2,0s0.3,0.9,0,1.2l0,0C105.3,115.6,103.3,116.5,101.1,116.6z"></path></g><g id="laptop"><polygon class="st1" points="269.8,265.1 215.8,270.7 215.8,273.7 277.8,273.7 	"></polygon><path class="st0" d="M277.8,274.5h-62c-0.5,0-0.9-0.4-0.9-0.9c0,0,0,0,0,0v-3c0-0.4,0.3-0.8,0.8-0.9l53.9-5.6
		c0.3,0,0.5,0.1,0.7,0.3l8,8.6c0.2,0.3,0.3,0.6,0.2,0.9C278.4,274.3,278.1,274.5,277.8,274.5z M216.7,272.8h59.1l-6.4-6.8l-52.7,5.5
		L216.7,272.8z"></path><polygon class="st1" points="309.3,273.7 251.1,273.7 274.5,218.4 332.6,218.4 	"></polygon><path class="st0" d="M309.3,274.5h-58.2c-0.5,0-0.9-0.4-0.9-0.9c0-0.1,0-0.2,0.1-0.3l23.4-55.3c0.1-0.3,0.5-0.5,0.8-0.5h58.2
		c0.5,0,0.9,0.4,0.9,0.8c0,0.1,0,0.2-0.1,0.4L310.1,274C309.9,274.3,309.6,274.5,309.3,274.5z M252.4,272.8h56.3l22.6-53.6H275
		L252.4,272.8z"></path><polygon class="st1" points="312.1,273.7 254,273.7 277.3,218.4 335.5,218.4 	"></polygon><path class="st0" d="M312.1,274.5H254c-0.5,0-0.9-0.4-0.9-0.9c0-0.1,0-0.2,0.1-0.3l23.3-55.3c0.1-0.3,0.5-0.5,0.8-0.5h58.2
		c0.5,0,0.9,0.4,0.9,0.8c0,0.1,0,0.2-0.1,0.4L312.9,274C312.8,274.3,312.5,274.5,312.1,274.5z M255.3,272.8h56.3l22.6-53.6h-56.3
		L255.3,272.8z"></path></g></svg>